HIERARCHY
ROOT Hips
{
	OFFSET 0.000000 0.000000 0.000000 
	CHANNELS 6 Xposition Yposition Zposition Yrotation Zrotation Xrotation 
	JOINT Lumbar
	{
		OFFSET 0.000000 0.000000 0.000000 
		CHANNELS 3 Zrotation Xrotation Yrotation
		JOINT Neck
		{
			OFFSET 0.000000 0.445665 0.000000 
			CHANNELS 3 Zrotation Xrotation Yrotation
			End Site
			{
				OFFSET 0.000000 0.227535 0.000000 
			}
		}
		JOINT RightShoulder
		{
			OFFSET 0.019635 0.377685 0.194865 
			CHANNELS 3 Zrotation Xrotation Yrotation
			JOINT RightElbow
			{
				OFFSET 0.000000 -0.243375 0.000000 
				CHANNELS 2 Zrotation Yrotation
				JOINT RightWrist
				{
					OFFSET 0.000000 -0.264825 0.000000 
					CHANNELS 2 Zrotation Xrotation
					End Site
					{
						OFFSET 0.006600 -0.176220 0.000990 
					}
				}
			}
		}
		JOINT LeftShoulder
		{
			OFFSET 0.019635 0.377685 -0.194865 
			CHANNELS 3 Zrotation Xrotation Yrotation
			JOINT LeftElbow
			{
				OFFSET 0.000000 -0.243375 0.000000 
				CHANNELS 2 Zrotation Yrotation
				JOINT LeftWrist
				{
					OFFSET 0.000000 -0.264825 0.000000 
					CHANNELS 2 Zrotation Xrotation
					End Site
					{
						OFFSET 0.006600 -0.176220 -0.000990 
					}
				}
			}
		}
	}
	JOINT RightHip
	{
		OFFSET 0.052140 -0.069960 0.075570 
		CHANNELS 3 Zrotation Xrotation Yrotation
		JOINT RightKnee
		{
			OFFSET 0.000000 -0.402270 0.000000 
			CHANNELS 1 Zrotation
			JOINT RightAnkle
			{
				OFFSET 0.000000 -0.404085 0.000000 
				CHANNELS 3 Zrotation Xrotation Yrotation
				End Site
				{
					OFFSET 0.204105 -0.089430 0.008415 
				}
			}
		}
	}
	JOINT LeftHip
	{
		OFFSET 0.052140 -0.069960 -0.075570 
		CHANNELS 3 Zrotation Xrotation Yrotation
		JOINT LeftKnee
		{
			OFFSET 0.000000 -0.402270 0.000000 
			CHANNELS 1 Zrotation
			JOINT LeftAnkle
			{
				OFFSET 0.000000 -0.404085 0.000000 
				CHANNELS 3 Zrotation Xrotation Yrotation
				End Site
				{
					OFFSET 0.204105 -0.089430 -0.008415 
				}
			}
		}
	}
}
MOTION
Frames: 16
Frame Time: 0.02
0.0015 0.0004 -0.0001 18.53944 -35.25743 -2.64894 56.01004 2.49752 2.54854 -4.29381 -9.16023 -1.3127 162.32914 -74.75535 -52.12977 13.03688 73.56451 0.39601 -8.50893 159.80107 70.32481 72.98108 9.50167 -74.31424 1.63369 9.12402 48.4106 -4.00378 -11.94849 -18.95747 -7.78538 -3.86085 -4.13861 52.67508 4.12677 3.58014 -24.3702 -8.15834 3.77761 4.19028
0.00079 0.00022 0.00027 18.53144 -35.24834 -2.64864 56.00564 2.48699 2.54494 -4.32838 -9.14855 -1.31224 161.95446 -74.78618 -52.42408 13.01815 73.54673 0.41861 -8.50227 159.5566 70.35342 73.31641 9.43973 -74.30656 1.63231 9.08576 48.44818 -4.0426 -12.22252 -18.96927 -7.75249 -3.8257 -4.12465 52.70184 4.22782 4.00126 -24.36605 -8.12859 3.75097 4.1708
9e-05 4e-05 0.00064 18.52341 -35.23925 -2.64832 56.00129 2.47646 2.54141 -4.363 -9.13666 -1.31179 161.58032 -74.81706 -52.71801 12.99938 73.52906 0.44127 -8.49551 159.31257 70.38209 73.65163 9.3779 -74.29899 1.631 9.04746 48.48572 -4.08125 -12.49533 -18.98104 -7.71973 -3.79068 -4.11075 52.72853 4.32866 4.42159 -24.36194 -8.09891 3.72436 4.15136
-0.00062 -0.00014 0.00101 18.51543 -35.23018 -2.64802 55.9969 2.46596 2.53783 -4.39748 -9.12498 -1.31134 161.20675 -74.8478 -53.01147 12.9807 73.51132 0.46383 -8.48886 159.06882 70.41061 73.98608 9.31614 -74.29124 1.62965 9.00929 48.5232 -4.11993 -12.76845 -18.99281 -7.68694 -3.75564 -4.09684 52.7552 4.42942 4.84151 -24.35781 -8.06925 3.69779 4.13194
-0.00132 -0.00032 0.00138 18.50751 -35.22111 -2.64775 55.99246 2.45547 2.53416 -4.43188 -9.11361 -1.31088 160.8327 -74.87847 -53.30517 12.96205 73.4935 0.48628 -8.48233 158.82468 70.43906 74.32028 9.25432 -74.28364 1.62815 8.97123 48.56068 -4.15881 -13.04296 -19.0046 -7.65402 -3.72045 -4.08286 52.78192 4.53035 5.26202 -24.35366 -8.03954 3.67119 4.11248
-0.00203 -0.0005 0.00175 18.49922 -35.21197 -2.64729 55.98831 2.44485 2.53093 -4.46697 -9.10061 -1.31045 160.45832 -74.90979 -53.59962 12.94303 73.4762 0.50937 -8.47508 158.58085 70.46821 74.6576 9.19244 -74.27634 1.62724 8.93245 48.59834 -4.19699 -13.31217 -19.01634 -7.62159 -3.68581 -4.06911 52.80857 4.63098 5.68192 -24.34961 -8.00992 3.64459 4.09307
-0.00274 -0.00068 0.00212 18.4917 -35.20299 -2.64724 55.98356 2.43452 2.52682 -4.50055 -9.09094 -1.30997 160.08544 -74.9397 -53.89201 12.92483 73.45771 0.53115 -8.46932 158.33685 70.49581 74.98829 9.13077 -74.26765 1.62526 8.89513 48.63561 -4.23652 -13.59169 -19.02818 -7.58821 -3.6501 -4.05492 52.83534 4.73213 6.10262 -24.34535 -7.98013 3.61801 4.07359
-0.00344 -0.00086 0.00249 18.48348 -35.19384 -2.64679 55.97938 2.42389 2.52349 -4.5357 -9.0781 -1.30953 159.71041 -74.97105 -54.18674 12.9058 73.44062 0.55414 -8.46216 158.09266 70.52504 75.32508 9.06887 -74.26166 1.62403 8.85652 48.67322 -4.27484 -13.86184 -19.03992 -7.5557 -3.61537 -4.04113 52.86198 4.83277 6.52253 -24.34129 -7.95051 3.59141 4.05418
-0.00415 -0.00104 0.00285 18.47432 -35.18459 -2.64592 55.97583 2.41301 2.52127 -4.57212 -9.06172 -1.30914 159.33552 -75.00361 -54.48281 12.88602 73.42401 0.57865 -8.45337 157.84946 70.55548 75.6697 9.00679 -74.25335 1.62469 8.81607 48.71135 -4.31151 -14.12002 -19.05154 -7.52428 -3.58185 -4.02785 52.88852 4.93296 6.94194 -24.33746 -7.92106 3.56476 4.03483
-0.00485 -0.00122 0.00323 18.4703 -35.17623 -2.64769 55.96848 2.40392 2.51314 -4.59927 -9.06673 -1.30847 158.96814 -75.02758 -54.76659 12.87135 73.40093 0.59455 -8.45419 157.60424 70.57661 75.97042 8.94606 -74.24151 1.6174 8.78542 48.74683 -4.35716 -14.44549 -19.06387 -7.48667 -3.54141 -4.01169 52.9158 5.03625 7.36568 -24.33229 -7.89053 3.53834 4.01503
-0.00556 -0.0014 0.00359 18.45563 -35.16578 -2.64373 55.96924 2.39085 2.51715 -4.6472 -9.02599 -1.30839 158.57968 -75.0707 -55.07916 12.84539 73.3939 0.62848 -8.4346 157.36095 70.61888 76.36287 8.88229 -74.24789 1.62501 8.73458 48.78765 -4.38419 -14.63004 -19.07468 -7.46206 -3.51552 -4.00158 52.94141 5.13264 7.77923 -24.32995 -7.86235 3.5115 3.99625
-0.00628 -0.00158 0.00388 18.40964 -35.15115 -2.6251 55.99145 2.36833 2.55744 -4.74286 -8.86347 -1.30989 158.17002 -75.16038 -55.45376 12.79083 73.41062 0.71385 -8.35835 157.1342 70.70891 77.0164 8.81134 -74.21016 1.68916 8.62177 48.84536 -4.35709 -14.41519 -19.08148 -7.47405 -3.53057 -4.00847 52.96338 5.21297 8.1734 -24.33524 -7.84 3.48283 3.97983
-0.00701 -0.00176 0.00414 18.35329 -35.13405 -2.60048 56.02184 2.34153 2.60943 -4.86121 -8.65433 -1.31201 157.72861 -75.2717 -55.86405 12.72348 73.44643 0.8172 -8.26093 156.90195 70.82297 77.75971 8.73688 -74.20391 1.76526 8.48852 48.90801 -4.31183 -14.06096 -19.08676 -7.49893 -3.56007 -4.02136 52.98344 5.28583 8.55573 -24.34339 -7.82011 3.45387 3.9645
-0.00774 -0.00193 0.00442 18.30309 -35.11716 -2.57791 56.04912 2.31574 2.65401 -4.97505 -8.464 -1.31384 157.28263 -75.37538 -56.26448 12.66172 73.48779 0.91076 -8.17461 156.67164 70.93159 78.45659 8.66361 -74.25012 1.82582 8.37068 48.96699 -4.27691 -13.77911 -19.09259 -7.5173 -3.5823 -4.03123 53.00384 5.36024 8.9379 -24.35027 -7.7995 3.42551 3.94894
-0.00846 -0.00211 0.00471 18.24694 -35.10442 -2.55824 56.07427 2.29394 2.70712 -5.06393 -8.28347 -1.31562 156.93237 -75.46452 -56.62325 12.60503 73.4724 1.01023 -8.08524 156.46556 71.01343 79.17988 8.59311 -74.03201 1.92956 8.23265 49.03212 -4.23326 -13.45978 -19.09885 -7.53842 -3.60747 -4.04235 53.02671 5.44247 9.3435 -24.35697 -7.77724 3.39522 3.93227
-0.00919 -0.00229 0.00497 18.20053 -35.08206 -2.53101 56.10527 2.26278 2.74565 -5.21084 -8.07164 -1.31777 156.35568 -75.59575 -57.09592 12.52952 73.57566 1.10285 -7.99315 156.18026 71.16137 79.86633 8.51468 -74.34999 1.94562 8.12466 49.08546 -4.20337 -13.18429 -19.10403 -7.55692 -3.63 -4.05231 53.04367 5.50655 9.69742 -24.3648 -7.75899 3.36884 3.91818
